<?xml version="1.0" encoding="utf-8"?>
<!-- Generator: Adobe Illustrator 21.1.0, SVG Export Plug-In . SVG Version: 6.00 Build 0)  -->
<svg version="1.1" id="Capa_1" xmlns="http://www.w3.org/2000/svg" xmlns:xlink="http://www.w3.org/1999/xlink" x="0px" y="0px"
	 viewBox="0 0 99 99" style="enable-background:new 0 0 99 99;" xml:space="preserve">
<style type="text/css">
	.st0{fill:#969696;}
	.st1{fill:#CCCCCC;}
	.st2{fill:#9B7CAB;}
	.st3{fill:#82688F;}
</style>
<g id="Mic">
	<g>
		<path class="st0" d="M-0.4,45.6c0,6.8,2.4,9.2,9.2,9.2V36.4C2.1,36.4-0.4,38.8-0.4,45.6z M88.8,36.4v18.4c6.8,0,9.2-2.4,9.2-9.2
			S95.6,36.4,88.8,36.4z"/>
	</g>
</g>
<g id="Grip">
	<g>
		<path class="st1" d="M48.8,30.3H21.1h-3.1H15c-3.4,0-6.2,2.8-6.2,6.1v3.1v3.1v18.5l15.9,26.1c2.6,4.3,8.5,5.8,13.1,3.3
			c4.6-2.5,6.2-8.1,3.5-12.4L30.9,61h17.9V30.3z"/>
	</g>
</g>
<g id="Megaphone">
	<g>
		<path class="st2" d="M85.7,5.7L48.8,30.3V61l36.9,24.6c1.7,0,3.1-1.4,3.1-3.1V8.7C88.8,7,87.4,5.7,85.7,5.7z"/>
	</g>
</g>
<g id="Megaphone_1_">
	<g>
		<path class="st3" d="M85.7,5.7l-6.1,4.1v71.7l6.1,4.1c1.7,0,3.1-1.4,3.1-3.1V8.7C88.8,7,87.4,5.7,85.7,5.7z"/>
	</g>
</g>
</svg>
