<?xml version="1.0" encoding="utf-8"?>
<!-- Generator: Adobe Illustrator 21.1.0, SVG Export Plug-In . SVG Version: 6.00 Build 0)  -->
<svg version="1.1" id="Capa_1" xmlns="http://www.w3.org/2000/svg" xmlns:xlink="http://www.w3.org/1999/xlink" x="0px" y="0px"
	 viewBox="0 0 99 99" style="enable-background:new 0 0 99 99;" xml:space="preserve">
<style type="text/css">
	.st0{fill:#969696;}
	.st1{fill:#CCCCCC;}
	.st2{fill:#9B7CAB;}
	.st3{fill:#82688F;}
</style>
<g id="Mic">
	<g>
		<path class="st0" d="M0.6,46.6c0,6.8,2.4,9.2,9.2,9.2V37.4C3.1,37.4,0.6,39.8,0.6,46.6z M89.8,37.4v18.4c6.8,0,9.2-2.4,9.2-9.2
			S96.6,37.4,89.8,37.4z"/>
	</g>
</g>
<g id="Grip">
	<g>
		<path class="st1" d="M49.8,31.3H22.1h-3.1H16c-3.4,0-6.2,2.8-6.2,6.1v3.1v3.1v18.5l15.9,26.1c2.6,4.3,8.5,5.8,13.1,3.3
			c4.6-2.5,6.2-8.1,3.5-12.4L31.9,62h17.9V31.3z"/>
	</g>
</g>
<g id="Megaphone">
	<g>
		<path class="st2" d="M86.7,6.7L49.8,31.3V62l36.9,24.6c1.7,0,3.1-1.4,3.1-3.1V9.7C89.8,8,88.4,6.7,86.7,6.7z"/>
	</g>
</g>
<g id="Megaphone_1_">
	<g>
		<path class="st3" d="M86.7,6.7l-6.1,4.1v71.7l6.1,4.1c1.7,0,3.1-1.4,3.1-3.1V9.7C89.8,8,88.4,6.7,86.7,6.7z"/>
	</g>
</g>
</svg>
